# xmcd
#
# Track frame offsets: 
#        182
#        16315
#        28817
#        44497
#        56762
#        69360
#        74172
#        87695
#        96967
#        109752
#        117332
#        132680
#        147045
#        162255
#        168912
#        183867
#        192790
#        205157
#        210552
#        224837
#        236947
#        249772
#
# Disc length: 3641 seconds
#
# Revision: 3
# Processed by: cddbd v1.5.2PL0 Copyright (c) Steve Scherf et al.
# Submitted via: ExactAudioCopyFreeDBPlugin 1.0
#
DISCID=540e3716
DTITLE=Paul Robson - Paul Robson - 'Ol' Man River
DYEAR=1900
DGENRE=
TTITLE0=Carry me back to old Virginny - Round the bend of the road - Riv
TTITLE0=er,stay way from my door
TTITLE1=Swing low, sweet chariot
TTITLE2=My old kentucky home
TTITLE3=Were you there when they crucified my lord?
TTITLE4=Blue prelude
TTITLE5=The old ark's a-moving
TTITLE6=Got the south in my soul
TTITLE7=Go down, Moses
TTITLE8=The folks I used to know
TTITLE9=I stood on the river
TTITLE10=Scarecrow
TTITLE11=Shenandoa
TTITLE12=Wagon wheels
TTITLE13=I want to be ready
TTITLE14=So shy
TTITLE15=Josua fit the battle of Jericho
TTITLE16=I ain't lazy, I'm just dreamin'
TTITLE17=Peter,go ring  a dem bells
TTITLE18=Mammy' little kinky headed boy
TTITLE19=Roll the chariot along
TTITLE20=Piccaninny shoes
TTITLE21=Hail the crown, I got a robe, oh Lord, I done what you told m
TTITLE21=e to do, the gospel train, ...
EXTD=
EXTT0=
EXTT1=
EXTT2=
EXTT3=
EXTT4=
EXTT5=
EXTT6=
EXTT7=
EXTT8=
EXTT9=
EXTT10=
EXTT11=
EXTT12=
EXTT13=
EXTT14=
EXTT15=
EXTT16=
EXTT17=
EXTT18=
EXTT19=
EXTT20=
EXTT21=
PLAYORDER=
